@startuml
'https://plantuml.com/class-diagram

interface Response{
    + Boolean isSuccessful()
}

interface InsertionStrategy{
    + Response insert(V newValue, Tree<V> tree)
}
class DefaultInsertionStrategy{
    + Response insert(V newValue, Tree<V> tree)
}

Response <.. InsertionStrategy
InsertionStrategy <|.. DefaultInsertionStrategy

@enduml