@startuml
'https://plantuml.com/class-diagram

interface Response{
    + Boolean isSuccessful()
}

interface ExecutorInterface{
    + Response execute(Path path)
}

class DefaultExecutor{
    + Response execute(Path path)
}

Response <.. ExecutorInterface
ExecutorInterface <|.. DefaultExecutor

@enduml